# xmcd
#
# Track frame offsets: 
#        150
#        13475
#        28329
#        40511
#        53483
#        67353
#        81122
#        95353
#        105922
#        118947
#        131328
#        145152
#        161588
#        175280
#        189304
#        203621
#        217671
#        231117
#        245545
#        257141
#        270470
#        284485
#        297811
#        311771
#        324520
#
# Disc length: 4505 seconds
#
# Revision: 0
# Processed by: cddbd v1.5.2PL0 Copyright (c) Steve Scherf et al.
# Submitted via: ExactAudioCopy v1.0b1
#
DISCID=68119719
DTITLE=Eddie Boyd - Essential Blues Masters
DYEAR=2010
DGENRE=Blues
TTITLE0=Rosa Lee Swing
TTITLE1=It's Miserable To Be Alone
TTITLE2=Why Don't You Be Wise Baby
TTITLE3=Playmate Shuffle
TTITLE4=Kilroy Won't Be Back
TTITLE5=Baby What's Wrong With You
TTITLE6=Eddie's Blues
TTITLE7=I'm Goin' Downton
TTITLE8=Chicago Is Just That Way
TTITLE9=Five Long Years
TTITLE10=Something Good Will Come To Me
TTITLE11=Hard Headed Woman
TTITLE12=Down Beat Rhythm
TTITLE13=Getting My Divorce
TTITLE14=I Gotta Find My Baby
TTITLE15=You Got To Leave That Gal
TTITLE16=Why Did She Leave Me
TTITLE17=Mr. Highway Man
TTITLE18=Blue Coat Man
TTITLE19=I Can Trust My Baby
TTITLE20=What Makes These Things Happen To Me
TTITLE21=Blue Monday Blues
TTITLE22=Unfair Lovers
TTITLE23=I Had To Let Her Go
TTITLE24=Lonesome For My Baby
EXTD=
EXTT0=
EXTT1=
EXTT2=
EXTT3=
EXTT4=
EXTT5=
EXTT6=
EXTT7=
EXTT8=
EXTT9=
EXTT10=
EXTT11=
EXTT12=
EXTT13=
EXTT14=
EXTT15=
EXTT16=
EXTT17=
EXTT18=
EXTT19=
EXTT20=
EXTT21=
EXTT22=
EXTT23=
EXTT24=
PLAYORDER=
